# xmcd CD database file
#
# Track frame offsets:
#	150
#	14797
#	32102
#	51185
#	70415
#	89572
#	107910
#	121515
#	141352
#	152615
#	171490
#	195095
#
# Disc length: 2817 seconds
#
# Revision: 0
# Processed by: cddbd v1.4PL0 Copyright (c) Steve Scherf et al.
# Submitted via: CDex 1.40Release
#
DISCID=a60aff0c
DTITLE=Frankie Ford - Hot and Lonely
DYEAR=1995
DGENRE=Blues
TTITLE0=Hot and Lonely
TTITLE1=Dancing with My Baby
TTITLE2=Don't Lie to Me
TTITLE3=Meet Me Tonight
TTITLE4=Even Fools Have feelings
TTITLE5=Hurt by Love Before
TTITLE6=Three People (Sleeping in my bed)
TTITLE7=Love Stealing Time Agian
TTITLE8=Gone
TTITLE9=Man Got To Do What A Man Got To Do
TTITLE10=Back Streets
TTITLE11=Thank God ( She can't read my mind)
EXTD=YEAR: 1995 ID3G: 0
EXTT0=
EXTT1=
EXTT2=
EXTT3=
EXTT4=
EXTT5=
EXTT6=
EXTT7=
EXTT8=
EXTT9=
EXTT10=
EXTT11=
PLAYORDER=
